<?xml version="1.0" encoding="utf-8"?>
<!-- Generator: Adobe Illustrator 25.3.1, SVG Export Plug-In . SVG Version: 6.00 Build 0)  -->
<svg version="1.1" id="Capa_1" xmlns="http://www.w3.org/2000/svg" xmlns:xlink="http://www.w3.org/1999/xlink" x="0px" y="0px"
	 viewBox="0 0 296.4 283" style="enable-background:new 0 0 296.4 283;" xml:space="preserve">
<style type="text/css">
	.st0{fill:#FFFFFF;stroke:#1D1D1B;stroke-miterlimit:10;}
	.st1{fill:#0D070D;}
	.st2{fill:#E0DFDD;}
	.st3{fill:#0D070C;}
	.st4{fill:#E0DEDC;}
	.st5{fill:#E0DFDC;}
	.st6{fill:#E2E1DE;}
	.st7{fill:#201217;}
	.st8{fill:#240F15;}
	.st9{fill:#170E15;}
	.st10{fill:#18171B;}
	.st11{fill:#DD0814;}
	.st12{fill:#6D363B;}
	.st13{fill:#693D45;}
	.st14{fill:#DD0B18;}
	.st15{fill:#131017;}
	.st16{fill:#E20614;}
	.st17{fill:#D3D0D0;}
	.st18{fill:#F0F0EC;}
	.st19{fill:#1D0F16;}
	.st20{fill:#171117;}
	.st21{fill:#CE0A17;}
	.st22{fill:#201218;}
	.st23{font-family:'MyriadPro-Bold';}
	.st24{font-size:15.3058px;}
	.st25{font-size:15.3084px;}
	.st26{font-size:15.2834px;}
	.st27{font-size:15.2808px;}
	.st28{font-size:15.322px;}
	.st29{font-size:15.3261px;}
	.st30{font-size:15.332px;}
	.st31{font-size:15.3252px;}
	.st32{font-size:15.3466px;}
	.st33{font-size:15.297px;}
	.st34{font-size:15.3548px;}
	.st35{font-size:15.3578px;}
	.st36{font-size:15.3623px;}
	.st37{font-size:15.3661px;}
	.st38{font-size:15.3689px;}
	.st39{font-size:15.3781px;}
	.st40{font-size:15.3707px;}
	.st41{font-size:15.3683px;}
	.st42{font-size:15.3666px;}
	.st43{font-size:15.3633px;}
	.st44{font-size:15.3593px;}
	.st45{font-size:15.3193px;}
	.st46{font-size:15.3778px;}
	.st47{font-size:15.346px;}
	.st48{font-size:15.342px;}
	.st49{font-size:15.2952px;}
	.st50{font-size:15.3164px;}
	.st51{font-size:15.3472px;}
	.st52{font-size:15.3159px;}
	.st53{font-size:15.395px;}
	.st54{font-size:15.2932px;}
	.st55{font-size:15.3028px;}
	.st56{font-size:12.2479px;}
	.st57{font-size:12.2509px;}
	.st58{font-size:12.2528px;}
	.st59{font-size:12.257px;}
	.st60{font-size:12.2589px;}
	.st61{font-size:12.264px;}
	.st62{font-size:12.2338px;}
	.st63{font-size:12.2714px;}
	.st64{font-size:12.2748px;}
	.st65{font-size:12.2768px;}
	.st66{font-size:12.28px;}
	.st67{font-size:12.2834px;}
	.st68{font-size:12.2635px;}
	.st69{font-size:12.2904px;}
	.st70{font-size:12.2927px;}
	.st71{font-size:12.2947px;}
	.st72{font-size:12.2951px;}
	.st73{font-size:12.2962px;}
	.st74{font-size:12.2959px;}
	.st75{font-size:12.3183px;}
	.st76{font-size:12.2936px;}
	.st77{font-size:12.2453px;}
	.st78{font-size:12.3453px;}
	.st79{font-size:12.2517px;}
	.st80{font-size:12.2826px;}
	.st81{font-size:12.2948px;}
	.st82{font-size:12.3498px;}
	.st83{font-size:12.2742px;}
	.st84{font-size:12.3211px;}
	.st85{font-size:12.3218px;}
	.st86{font-size:12.1849px;}
	.st87{font-size:12.26px;}
	.st88{font-size:12.2572px;}
	.st89{font-size:12.2247px;}
	.st90{font-size:12.2505px;}
	.st91{font-size:12.3054px;}
</style>
<circle class="st0" cx="148.7" cy="139.2" r="125.9"/>
<g>
	<path class="st1" d="M164,94.9c1,2.2-0.2,5.7,2.4,6.6c3.3,1,4.2-2.8,5.9-4.6c7.5-7.8,12.5-8.2,20.9-1.3c3.2,2.6,6.3,5,9.4,7.7
		c1.1,0.9,3.4,1.5,2.3,3.9c-4.5,6.7-10.6,11.3-17.9,14.6c-2.1,1-4.6,1.3-6.7-0.4c-5.3-1.4-8.3-6.1-11.9-9.7c-2,1.7-0.7,3.7-1.5,5.2
		c-1.7-0.8-3.7-1-5.5-0.5c-4.7,1.4-0.3,4.7-1.4,6.9c-0.2,4.6,0.6,9.2-0.5,13.8c-0.6,2.3-0.6,4.7-2,6.7c-1.6,0.9-1.9-0.4-2.4-1.4
		c-1.1-5.3,0.5-10.5,1-15.7c0.5-3.1,0-6.1-1.3-8.9c-3.3-6.3-2.3-12.8-1.4-19.2c-0.9,1.4-2.2,2.6-3.7,3.3c-2.2,0.9-3.5-0.4-4.3-2.4
		c-0.1-0.8,0.2-1.5,0.9-1.9c6.8-1.8,10.5-7.2,13.2-13.1c1.2-2.8,0.2-5.7-1.1-8.3c-2.2-4.2-5.4-7.8-8-11.8c-1.6-2.6-2.6-0.8-3.8,0.5
		c-3.9,4.6-6.7,10-10.4,14.9c-1.2-0.6-1.1-1.4-0.6-2.5c2-7.5,8.1-12.4,12.2-18.5c0.8-1.2,1.6-0.8,2.2,0.3
		c4.4,6.9,10.3,12.7,13.2,20.5c2.3,3.5,0.3,6.5-1.1,9.5c-1.6,3.4-3.8,6.7-3.7,10.9c2.3-0.5,2-2.4,2.8-3.6
		C161.8,94.9,162.2,93.5,164,94.9z"/>
	<path class="st2" d="M156.7,143.8l3.2-20.6c0.1,0.7,0.2,1.8,0.4,1.8c1.3,0.1,0.2-2,3.2-1.8c-3.5,37.1-9.6,73.9-13.6,110.9
		c-2.3-5.3,0.4-11.2-2-16.5c-0.5-0.4-0.8-0.9-1-1.4c-1.4-5.8,1.4-11.3,1.9-17c0.6-7.2,1.4-14.4,2.8-21.5c0.9-5.7,1.2-11.7,2-17.4
		C154.9,154.8,153.6,148.8,156.7,143.8z"/>
	<path class="st3" d="M112,121.5c-8.5-2.3-13.6-9.2-20.1-14.3c-1.6-1.2-0.1-2,0.7-2.8c4.7-3.9,9.4-7.9,14.3-11.5
		c4.3-3.1,9-2.9,13.2,0.4c2,1.5,3.9,3.4,5.4,5.3c2.3,3,3.8,4.2,5.7-0.5c1.6-3.8,4.3-3.7,7.2-0.2c-2.3,0.4-5.5-0.7-6.1,3.7
		c2.8-1.4,6.6,3.7,8.1-2.6c-0.6-1.2-0.7-2.3,1.1-2.4c5.5,7.8,4.2,20.2-2.7,25.2c-0.9-0.1-1.8-0.2-1.5-1.4l1.5-1.7
		c-0.1-1.2,0.5-2.3,0.6-3.5c0.3-3.7-1.3-4.3-5.2-3.1c3.1,1.6,6.1,2.8,4.7,6.6c-2.8-0.6-5.6-1-7.5-3.5c-2-1.8-3.6-2.3-5.5,0.4
		s-4.6,5.4-8.2,6.5C115.8,122.7,113.8,123,112,121.5z"/>
	<path class="st4" d="M180.4,121.5c6.4,0.5,11.2-2.8,15.7-6.8c2.9-2.6,5.9-5,8.8-7.5c3.7,1.8,4.4,3.5,0.8,6.8
		c-4.4,4-8.9,7.9-14.3,10.5C186.9,126.7,182.6,125.4,180.4,121.5z"/>
	<path class="st5" d="M112,121.5c8.8,0.8,12.6-5.9,17.5-12.1l2,5.7c-3.9,8.8-12.2,12.6-18.7,8.6C111.7,123.1,111.5,122.5,112,121.5z
		"/>
	<path class="st6" d="M164,94.9c-3.1,0-2.1,2.8-2.3,4.1c-0.5,3.1-2.6,3-4.5,2.5c-2.4-0.7-0.6-2.6-0.3-3.7c0.8-3.3,2.1-6.5,4-9.3
		c1.7-2.8,2.4-5.9,2.3-9.2c3.2,0.9,4.9,5.2,3.6,9C165.8,90.6,164.9,92.9,164,94.9z"/>
	<path class="st7" d="M147.5,216.6l0.2,1c-1,2.3-0.8,4.6-1.1,7s-0.8,4.6-1.1,7l-1.3,0.1l-1.5-28.8c-0.9-3.3-0.2-6.6-0.4-9.9
		c2.2-0.4,2.9-0.3,2.7,2.3c-0.3,6.5,2.1,12.8,0.6,19.3c0.2,0,0.3,0,0.5,0c0.2,0,0.3-0.1,0.5-0.1C147.5,214.7,147,215.8,147.5,216.6z
		"/>
	<path class="st8" d="M137.5,120.3l0.9,1c1,1.1,1.6,2.7,1.5,4.2c0.4,9.3,1.1,18.6,2,27.9c0.3,1.8,0,3.8-0.8,5.4
		c-0.5,0.8-1.5,1-2.2,0.5c-0.1,0-0.2-0.1-0.2-0.2c-0.7-11.1-1.5-22.2-2.1-33.3C136.5,124.1,135.3,121.9,137.5,120.3z"/>
	<path class="st9" d="M141.3,96.8l-0.8,2.3c-1.2-3.4-2.2-6.9-4.4-9.9c-2.4-3.6-2.6-7.8-0.8-11.9c0.3,0.7,0.6,1.5,0.9,2.3
		c0.6,0.3,1.1,0.9,1.1,1.5c0.1,5.9,3.2,10.1,7.8,13.5c1,0.7,2.1,1.7,1.4,3.4l-0.9,1C143.5,99.8,143,97,141.3,96.8z"/>
	<path class="st10" d="M138.7,159.3h1.9c1.2,1.1,1.3,2.7,1.4,4.1c0.1,3.5-0.4,7.1,0.7,10.5c0.5,4.2,0.6,8.4,1.2,12.5
		c0.4,1.8,0,3.8-1.1,5.2c-0.1,3.7-0.2,7.5-0.2,11.2c-1.7-7.4-1.2-15.1-2-22.5C139.8,173.2,139.3,166.2,138.7,159.3z"/>
	<path class="st11" d="M46.5,154c-2.9,1.3-4.2-1.1-4.3-2.8c-0.2-2.6,1.3-4.4,4.5-3.7C48.9,149.8,49.7,152,46.5,154z"/>
	<path class="st11" d="M254.2,153.2c-0.4,1.9-1.7,2.5-3.3,1.5c-1.7-1-3.2-2.5-2-4.8c1.6-1.3,3.4-2.4,5.2-0.7
		C255.4,150.4,256.4,151.9,254.2,153.2z"/>
	<path class="st12" d="M254.2,153.2c1.1-5.8-2.3-4.1-5.2-3.2c1-2.8,3.2-3,5.3-1.7c1.7,0.8,2.3,2.9,1.5,4.6c0,0.1-0.1,0.2-0.1,0.2
		C255.4,153.8,254.8,153.8,254.2,153.2z"/>
	<path class="st13" d="M46.5,154c2.2-2,1.4-4.2,0.1-6.4c1.9,0.3,3.2,2,3,4c0,0,0,0,0,0.1C49.4,153.2,48.6,154.6,46.5,154z"/>
	<path class="st14" d="M140.7,163.1l-0.1-3.8l-2.1-37.9c7.3-7.4,5.5-16,2.9-24.5c2.6-1.6,2.7,1.9,4.4,2c1.2,2.4,2.8,3.6,4.8,0.8
		c1.1-1.8,2.7-3.5,4.4-4.9c-1.9,9.2-2.3,17.4,2.4,25.6c2.1,3.7-0.7,8.3-0.8,12.5c0,2.9-0.5,5.7-0.7,8.6c0,5.5-0.9,11-1.5,16.5
		c-0.8,5.2-1.3,10.5-1.9,15.6c-1.9,12.9-3.2,25.9-5.1,38.7c0,0.7-0.2,1.3-0.7,1.8l-1.3,3.5c-0.8-8.9-1.6-17.4-2.3-26
		c-0.4-6-0.8-12.1-1.2-18.1C140.4,170.1,141.9,166.4,140.7,163.1z"/>
	<path class="st14" d="M182.6,119.3c-3.9,0.3-6.6-1.7-9.1-4.5c-2-2.4-3.7-5.1-6.5-7.1c-1.4-1-3.1-3.8,1-4.5c2.7-0.4,3.6-3,5.1-4.7
		c6.8-7.4,11.3-7.8,19.1-1.4c0.6,0.5,1.3,1.1,1.9,1.6c9.5,7.7,9.5,7.7-0.2,15.5C190.7,116.9,187.3,119.5,182.6,119.3z"/>
	<path class="st14" d="M146.6,97.8c-0.9-1.1-2-2.3-3.2-3.3c-5.2-3.8-8-8.6-7.2-15.3c1.7-7.3,7-12.2,11.2-17.8
		c1.3-1.8,1.8-0.3,2.6,0.6c3.1,4.4,6.4,8.7,9.2,13.3c2.6,3.8,2.4,8.8-0.2,12.5c-2.6,3.9-6.1,6.8-9.3,10
		C148.6,99.1,147.6,98.4,146.6,97.8z"/>
	<path class="st15" d="M153.8,157.8c0-5.5,0.6-11,2-16.3c0.3,0.8,0.6,1.5,0.9,2.4l-2,16.4C152.7,160.1,153.6,158.8,153.8,157.8z"/>
	<path class="st16" d="M160.4,105.3c-0.3,1.6-0.6,3.1-2.7,2.9c-1.4-0.1-2.7-0.1-2.6-2.2c0.1-2,0.9-2.8,2.8-2.7
		C159.3,103.3,160.6,103.3,160.4,105.3z"/>
	<path class="st17" d="M157.7,117.6c-1-2.9-2.6-4.9-1.6-7.2c0.3-0.7,2.3-0.8,2.7,0C159.6,112.5,159,114.7,157.7,117.6z"/>
	<path class="st18" d="M165.1,112.5c0.2,1.7-0.9,1.7-2.2,1.7c-1.6,0-2.1-0.6-1.9-2.2c0-1.2,1-2.2,2.2-2.2h0.1
		C165,110.1,165.2,111.2,165.1,112.5z"/>
	<path class="st19" d="M146.5,214.2c1.2-13.7,2.8-27.4,5.1-40.9c1.3,1.2,0.2,3,0.9,4.3l-5,38.9L146.5,214.2z"/>
	<path class="st20" d="M152.5,177.6c-1.1-1.2-0.5-2.9-0.8-4.3c0-5.2,0.7-10.5,2-15.5l0.9,2.5C154,166,153.2,171.8,152.5,177.6z"/>
	<path class="st14" d="M114.8,119.3c-6.1,0.1-9.9-3.2-13.6-6.5c-8-7-8-7,0.4-13.5l1.2-0.9c10.2-8.2,13.6-7.9,22.3,1.9
		c1,1.1,1.7,2.4,3.4,3c1.1,0.5,1.7,1.7,1.3,3c-0.1,0.2-0.1,0.3-0.3,0.5c-3.9,4.1-6.2,9.8-11.9,12.1
		C116.6,119.1,115.7,119.3,114.8,119.3z"/>
	<path class="st21" d="M136.9,108.2c-1.7-0.6-4.5,1.2-4.7-2.3c-0.2-3.8,2.8-2.6,4.6-2.7c2-0.1,4.8-0.6,4.6,2.9
		S138.5,107.4,136.9,108.2z"/>
	<path class="st6" d="M139.2,118.6c-0.6-1.9,0-4.6-3.9-3.8c-1.7,0.4-2.8-1.9-2.7-3.7s1.8-1.1,2.9-1c2,0,5.2-1,5.7,0.5
		c0.9,2.7-0.5,5.5-2.1,8L139.2,118.6z"/>
	<path class="st22" d="M140.7,163.1c1.3,3.4,0.8,7,0.8,10.6C139.7,170.2,141,166.6,140.7,163.1z"/>
	<text transform="matrix(0.2494 -0.9725 0.9681 0.2506 40.9383 116.6197)" class="st23 st24">C</text>
	<text transform="matrix(0.3311 -0.9473 0.9431 0.3326 42.9784 108.3999)" class="st23 st25">O</text>
	<text transform="matrix(0.4105 -0.9152 0.911 0.4124 46.5883 98.2365)" class="st23 st26">L</text>
	<text transform="matrix(0.4706 -0.8852 0.8812 0.4728 49.7005 91.2257)" class="st23 st27">E</text>
	<text transform="matrix(0.5453 -0.8405 0.8367 0.5477 53.424 84.1657)" class="st23 st28">G</text>
	<text transform="matrix(0.599 -0.8023 0.7987 0.6017 59.0955 75.5889)" class="st23 st29">I</text>
	<text transform="matrix(0.6487 -0.7619 0.7585 0.6517 61.5234 72.1478)" class="st23 st30">O</text>
	<text transform="matrix(0.7488 -0.6619 0.6589 0.7522 70.591 61.8079)" class="st23 st31">M</text>
	<text transform="matrix(0.8056 -0.5901 0.5875 0.8093 80.1798 53.4446)" class="st23 st32">E</text>
	<text transform="matrix(0.8502 -0.5225 0.5202 0.8541 86.6063 48.6904)" class="st23 st33">X</text>
	<text transform="matrix(0.8789 -0.4717 0.4696 0.8829 94.4822 43.9051)" class="st23 st34">I</text>
	<text transform="matrix(0.9055 -0.4172 0.4154 0.9097 98.1637 41.8461)" class="st23 st35">C</text>
	<text transform="matrix(0.9381 -0.336 0.3345 0.9424 106.3558 38.0455)" class="st23 st36">A</text>
	<text transform="matrix(0.9649 -0.2471 0.246 0.9693 115.5872 34.7145)" class="st23 st37">N</text>
	<text transform="matrix(0.9839 -0.1525 0.1518 0.9884 125.5632 32.1315)" class="st23 st38">O</text>
	<text transform="matrix(0.995 -2.998514e-02 2.984961e-02 0.9996 139.1504 30.2154)" class="st23 st39">D</text>
	<text transform="matrix(0.994 5.512408e-02 -5.487493e-02 0.9985 149.606 29.9493)" class="st23 st40">E</text>
	<text transform="matrix(0.9823 0.163 -0.1623 0.9867 160.5617 30.6657)" class="st23 st41">A</text>
	<text transform="matrix(0.9635 0.2527 -0.2515 0.9679 170.2327 32.2442)" class="st23 st42">N</text>
	<text transform="matrix(0.9394 0.3325 -0.331 0.9436 180.2081 34.8987)" class="st23 st43">E</text>
	<text transform="matrix(0.9127 0.401 -0.3992 0.9169 187.7465 37.563)" class="st23 st44">S</text>
	<text transform="matrix(0.879 0.4716 -0.4694 0.883 195.1641 40.8011)" class="st23 st45">T</text>
	<text transform="matrix(0.8458 0.5298 -0.5274 0.8496 202.3853 44.6538)" class="st23 st46">E</text>
	<text transform="matrix(0.8022 0.5948 -0.5921 0.8059 209.1483 48.9158)" class="st23 st47">S</text>
	<text transform="matrix(0.7675 0.6397 -0.6368 0.771 215.6255 53.7828)" class="st23 st48">I</text>
	<text transform="matrix(0.7203 0.6934 -0.6903 0.7236 218.9413 56.3855)" class="st23 st49">O</text>
	<text transform="matrix(0.6593 0.7526 -0.7492 0.6623 226.6731 63.8662)" class="st23 st50">L</text>
	<text transform="matrix(0.599 0.8023 -0.7987 0.6017 231.4066 69.0822)" class="st23 st29">O</text>
	<text transform="matrix(0.5284 0.8513 -0.8475 0.5308 237.8937 77.7002)" class="st23 st51">G</text>
	<text transform="matrix(0.4673 0.887 -0.8829 0.4695 243.1967 86.5233)" class="st23 st52">I</text>
	<text transform="matrix(0.4105 0.9152 -0.911 0.4124 245.2486 90.1907)" class="st23 st26">A</text>
	<text transform="matrix(0.328 0.9485 -0.9442 0.3294 250.2762 102.0992)" class="st23 st53">.</text>
	<text transform="matrix(0.2401 0.9749 -0.9705 0.2412 252.5113 108.5961)" class="st23 st54">A</text>
	<text transform="matrix(0.157 0.992 -0.9875 0.1577 254.7555 117.8085)" class="st23 st55">C</text>
	<text transform="matrix(-0.3449 0.9423 -0.9381 -0.3465 252.0084 175.5998)" class="st23 st56">A</text>
	<text transform="matrix(-0.4133 0.9139 -0.9098 -0.4151 249.2998 183.0504)" class="st23 st57">N</text>
	<text transform="matrix(-0.474 0.8833 -0.8793 -0.4762 245.8496 190.6232)" class="st23 st58">T</text>
	<text transform="matrix(-0.5257 0.853 -0.8492 -0.5281 242.7195 196.4632)" class="st23 st59">E</text>
	<text transform="matrix(-0.5752 0.8199 -0.8162 -0.5778 239.3317 201.9566)" class="st23 st60">S</text>
	<text transform="matrix(-0.64 0.7694 -0.766 -0.6429 234.1286 209.2109)" class="st23 st61">S</text>
	<text transform="matrix(-0.6904 0.7237 -0.7204 -0.6935 230.022 214.2215)" class="st23 st62">O</text>
	<text transform="matrix(-0.7417 0.67 -0.6669 -0.7451 224.0097 220.4632)" class="st23 st63">C</text>
	<text transform="matrix(-0.773 0.633 -0.6302 -0.7765 218.6526 225.2465)" class="st23 st64">I</text>
	<text transform="matrix(-0.8003 0.5974 -0.5947 -0.804 216.0433 227.4302)" class="st23 st65">E</text>
	<text transform="matrix(-0.8367 0.5442 -0.5418 -0.8405 210.8921 231.3042)" class="st23 st66">D</text>
	<text transform="matrix(-0.8743 0.4804 -0.4782 -0.8782 204.0485 235.7518)" class="st23 st67">A</text>
	<text transform="matrix(-0.9083 0.4111 -0.4093 -0.9124 197.1322 239.5741)" class="st23 st68">D</text>
	<text transform="matrix(-0.9458 0.3135 -0.312 -0.9501 187.2739 243.9776)" class="st23 st69">M</text>
	<text transform="matrix(-0.9667 0.2398 -0.2387 -0.9711 177.5553 247.1345)" class="st23 st70">E</text>
	<text transform="matrix(-0.9798 0.1776 -0.1768 -0.9842 171.3456 248.6931)" class="st23 st71">X</text>
	<text transform="matrix(-0.9873 0.1283 -0.1277 -0.9918 164.0502 249.9655)" class="st23 st72">I</text>
	<text transform="matrix(-0.9923 8.002663e-02 -7.966493e-02 -0.9968 160.7035 250.455)" class="st23 st73">C</text>
	<text transform="matrix(-0.9954 1.012327e-02 -1.007751e-02 -0.9999 153.462 251.0493)" class="st23 st74">A</text>
	<text transform="matrix(-0.9937 -5.989354e-02 5.962285e-02 -0.9982 145.5756 251.1416)" class="st23 st75">N</text>
	<text transform="matrix(-0.9861 -0.1373 0.1367 -0.9906 137.3154 250.6078)" class="st23 st72">A</text>
	<text transform="matrix(-0.9686 -0.2318 0.2307 -0.973 127.1136 249.0911)" class="st23 st76">D</text>
	<text transform="matrix(-0.9497 -0.3012 0.2999 -0.954 118.944 247.1005)" class="st23 st77">E</text>
	<text transform="matrix(-0.9221 -0.3785 0.3767 -0.9263 110.5256 244.41)" class="st23 st78">A</text>
	<text transform="matrix(-0.8892 -0.4516 0.4496 -0.8932 103.2219 241.4162)" class="st23 st79">N</text>
	<text transform="matrix(-0.8599 -0.5062 0.5039 -0.8638 95.8175 237.6763)" class="st23 st80">E</text>
	<text transform="matrix(-0.8264 -0.5601 0.5575 -0.8301 90.2775 234.4182)" class="st23 st81">S</text>
	<text transform="matrix(-0.7929 -0.6073 0.6046 -0.7965 84.8711 230.8003)" class="st23 st82">T</text>
	<text transform="matrix(-0.758 -0.6512 0.6483 -0.7614 79.6299 226.7947)" class="st23 st83">E</text>
	<text transform="matrix(-0.7153 -0.6986 0.6955 -0.7186 74.7723 222.6023)" class="st23 st84">S</text>
	<text transform="matrix(-0.6855 -0.7285 0.7252 -0.6886 70.1116 218.0334)" class="st23 st85">I</text>
	<text transform="matrix(-0.6429 -0.767 0.7635 -0.6458 67.7348 215.6155)" class="st23 st86">O</text>
	<text transform="matrix(-0.5907 -0.8086 0.8049 -0.5934 62.1959 208.9531)" class="st23 st87">L</text>
	<text transform="matrix(-0.5428 -0.8421 0.8383 -0.5452 58.7995 204.3634)" class="st23 st88">O</text>
	<text transform="matrix(-0.4706 -0.8852 0.8812 -0.4728 54.1277 197.0864)" class="st23 st89">G</text>
	<text transform="matrix(-0.4267 -0.9076 0.9035 -0.4286 50.2723 189.7617)" class="st23 st90">I</text>
	<text transform="matrix(-0.378 -0.9293 0.9251 -0.3797 48.771 186.719)" class="st23 st91">A</text>
</g>
</svg>
